<?xml version="1.0" encoding="UTF-8" standalone="no"?>
<svg
   xmlns:dc="http://purl.org/dc/elements/1.1/"
   xmlns:cc="http://creativecommons.org/ns#"
   xmlns:rdf="http://www.w3.org/1999/02/22-rdf-syntax-ns#"
   xmlns:svg="http://www.w3.org/2000/svg"
   xmlns="http://www.w3.org/2000/svg"
   id="svg8"
   version="1.1"
   viewBox="0 0 82.071259 77.096344"
   height="77.096344mm"
   width="82.071259mm">
  <defs
     id="defs2">
    <linearGradient
       id="_Linear1"
       x1="0"
       y1="0"
       x2="1"
       y2="0"
       gradientUnits="userSpaceOnUse"
       gradientTransform="matrix(184.861,147.565,-135.5,201.321,18.8607,14.7175)">
      <stop
         offset="0%"
         style="stop-color:rgb(180,118,255);stop-opacity:1"
         id="stop860" />
      <stop
         offset="22%"
         style="stop-color:rgb(255,182,156);stop-opacity:1"
         id="stop862" />
      <stop
         offset="22%"
         style="stop-color:rgb(255,218,144);stop-opacity:1"
         id="stop864" />
      <stop
         offset="53%"
         style="stop-color:white;stop-opacity:1"
         id="stop866" />
      <stop
         offset="53%"
         style="stop-color:rgb(115,255,213);stop-opacity:1"
         id="stop868" />
      <stop
         offset="81%"
         style="stop-color:rgb(161,238,255);stop-opacity:1"
         id="stop870" />
      <stop
         offset="100%"
         style="stop-color:rgb(228,255,250);stop-opacity:1"
         id="stop872" />
    </linearGradient>
  </defs>
  <metadata
     id="metadata5">
    <rdf:RDF>
      <cc:Work
         rdf:about="">
        <dc:format>image/svg+xml</dc:format>
        <dc:type
           rdf:resource="http://purl.org/dc/dcmitype/StillImage" />
        <dc:title></dc:title>
      </cc:Work>
    </rdf:RDF>
  </metadata>
  <g
     transform="translate(-59.54828,-52.580216)"
     id="layer1">
    <g
       transform="matrix(0.22567367,0,0,0.22567367,92.312396,50.264417)"
       id="g905"
       style="clip-rule:evenodd;fill-rule:evenodd;stroke-linecap:round;stroke-linejoin:round;stroke-miterlimit:1.5">
      <g
         id="Artboard"
         transform="translate(1.5,8)">
        <g
   id="Rectangle-3"
   transform="matrix(0.879012,0.879012,-0.879012,0.879012,151.249,-84.6668)">
            <path
   d="m 130.778,139.815 c 0,-2.281 -1.852,-4.133 -4.133,-4.133 H 94.911 c -2.281,0 -4.133,1.852 -4.133,4.133 v 31.734 c 0,2.281 1.852,4.133 4.133,4.133 h 31.734 c 2.281,0 4.133,-1.852 4.133,-4.133 z"
   style="fill:#a1ffee"
   id="path837" />

            <path
   d="m 89.208,133.832 0.145,-0.135 0.147,-0.131 0.152,-0.128 0.154,-0.124 0.157,-0.121 0.16,-0.116 0.163,-0.114 0.167,-0.109 0.169,-0.106 0.171,-0.101 0.175,-0.098 0.177,-0.093 0.18,-0.09 0.182,-0.085 0.185,-0.081 0.175,-0.072 0.106,-0.041 0.096,-0.035 0.095,-0.035 0.096,-0.033 0.097,-0.032 0.097,-0.031 0.098,-0.03 0.098,-0.028 0.099,-0.027 0.099,-0.027 0.1,-0.025 0.1,-0.023 0.1,-0.023 0.101,-0.021 0.101,-0.02 0.102,-0.019 0.103,-0.018 0.102,-0.016 0.103,-0.015 0.103,-0.014 0.104,-0.013 0.104,-0.011 0.104,-0.01 0.104,-0.009 0.105,-0.007 0.106,-0.006 0.105,-0.004 0.105,-0.004 0.106,-0.002 h 31.945 l 0.105,0.002 0.106,0.003 0.105,0.005 0.105,0.006 0.104,0.007 0.105,0.009 0.104,0.01 0.104,0.011 0.104,0.013 0.103,0.014 0.103,0.015 0.103,0.016 0.102,0.018 0.101,0.018 0.102,0.021 0.101,0.021 0.1,0.023 0.101,0.023 0.099,0.025 0.099,0.026 0.099,0.028 0.098,0.028 0.098,0.03 0.097,0.031 0.097,0.032 0.192,0.068 0.094,0.035 0.107,0.041 0.175,0.072 0.185,0.081 0.182,0.085 0.18,0.09 0.177,0.093 0.175,0.098 0.171,0.101 0.169,0.106 0.167,0.109 0.163,0.113 0.16,0.117 0.157,0.121 0.155,0.124 0.151,0.128 0.148,0.131 0.144,0.135 0.142,0.138 0.138,0.142 0.135,0.144 0.131,0.148 0.128,0.151 0.124,0.155 0.12,0.157 0.117,0.16 0.114,0.163 0.109,0.166 0.105,0.169 0.102,0.172 0.098,0.175 0.093,0.177 0.09,0.18 0.085,0.182 0.081,0.185 0.071,0.175 0.042,0.106 0.035,0.095 0.068,0.192 0.032,0.097 0.031,0.097 0.058,0.196 0.027,0.099 0.052,0.198 0.023,0.101 0.023,0.1 0.021,0.101 0.02,0.102 0.019,0.101 0.018,0.102 0.016,0.102 0.015,0.104 0.014,0.103 0.013,0.104 0.011,0.103 0.01,0.104 0.016,0.21 0.006,0.105 0.004,0.105 0.004,0.106 0.002,0.105 v 31.945 l -0.002,0.106 -0.004,0.106 -0.004,0.105 -0.006,0.105 -0.008,0.104 -0.008,0.105 -0.01,0.104 -0.011,0.104 -0.013,0.104 -0.014,0.103 -0.015,0.102 -0.016,0.103 -0.018,0.103 -0.019,0.101 -0.02,0.102 -0.021,0.101 -0.023,0.1 -0.023,0.1 -0.025,0.1 -0.027,0.099 -0.027,0.099 -0.029,0.098 -0.029,0.098 -0.031,0.097 -0.032,0.096 -0.034,0.097 -0.034,0.096 -0.035,0.094 -0.042,0.106 -0.071,0.176 -0.081,0.185 -0.085,0.182 -0.09,0.18 -0.093,0.177 -0.098,0.174 -0.102,0.172 -0.105,0.169 -0.109,0.166 -0.114,0.164 -0.117,0.16 -0.12,0.157 -0.124,0.154 -0.128,0.151 -0.131,0.148 -0.135,0.145 -0.138,0.141 -0.142,0.139 -0.144,0.134 -0.148,0.132 -0.151,0.127 -0.155,0.124 -0.157,0.121 -0.16,0.117 -0.163,0.113 -0.167,0.11 -0.169,0.105 -0.171,0.102 -0.175,0.097 -0.177,0.094 -0.18,0.089 -0.182,0.085 -0.185,0.081 -0.175,0.072 -0.107,0.041 -0.094,0.036 -0.096,0.034 -0.096,0.033 -0.097,0.032 -0.097,0.031 -0.097,0.03 -0.099,0.029 -0.099,0.027 -0.099,0.026 -0.099,0.025 -0.101,0.024 -0.1,0.023 -0.101,0.021 -0.102,0.02 -0.101,0.019 -0.102,0.017 -0.103,0.017 -0.103,0.015 -0.103,0.014 -0.104,0.012 -0.104,0.011 -0.104,0.01 -0.105,0.009 -0.104,0.007 -0.105,0.006 -0.105,0.005 -0.106,0.003 -0.105,0.002 -0.093,0.001 h -31.76 l -0.092,-0.001 -0.106,-0.002 -0.105,-0.003 -0.106,-0.005 -0.105,-0.006 -0.104,-0.007 -0.105,-0.009 -0.104,-0.01 -0.104,-0.011 -0.104,-0.012 -0.103,-0.014 -0.103,-0.015 -0.102,-0.017 -0.102,-0.017 -0.102,-0.019 -0.102,-0.02 -0.101,-0.021 -0.1,-0.023 -0.101,-0.024 -0.099,-0.025 -0.099,-0.026 -0.099,-0.027 -0.098,-0.029 -0.098,-0.03 -0.097,-0.031 -0.096,-0.032 -0.097,-0.033 -0.095,-0.034 -0.095,-0.036 -0.107,-0.041 -0.175,-0.072 -0.185,-0.081 -0.182,-0.085 -0.18,-0.089 -0.177,-0.094 -0.174,-0.097 -0.172,-0.102 -0.169,-0.105 -0.166,-0.11 -0.164,-0.113 -0.16,-0.117 -0.157,-0.12 -0.154,-0.125 -0.152,-0.127 -0.147,-0.132 -0.145,-0.135 -0.142,-0.138 -0.138,-0.141 -0.134,-0.145 -0.132,-0.148 -0.127,-0.151 -0.125,-0.154 -0.12,-0.157 -0.117,-0.16 -0.113,-0.164 -0.11,-0.166 -0.105,-0.169 -0.102,-0.172 -0.097,-0.174 -0.094,-0.177 -0.089,-0.18 -0.086,-0.182 -0.08,-0.185 -0.072,-0.175 -0.041,-0.107 -0.036,-0.095 -0.034,-0.095 -0.033,-0.096 -0.033,-0.097 -0.03,-0.097 -0.03,-0.098 -0.029,-0.098 -0.027,-0.099 -0.026,-0.099 -0.025,-0.1 -0.024,-0.1 -0.023,-0.1 -0.021,-0.102 -0.02,-0.101 -0.019,-0.101 -0.018,-0.103 -0.016,-0.102 -0.015,-0.103 -0.014,-0.104 -0.012,-0.103 -0.012,-0.104 -0.01,-0.104 -0.008,-0.105 -0.007,-0.104 -0.006,-0.105 -0.005,-0.106 -0.004,-0.105 -0.002,-0.106 v -0.092 -31.76 -0.093 l 0.002,-0.105 0.004,-0.106 0.004,-0.105 0.007,-0.105 0.007,-0.105 0.008,-0.104 0.01,-0.105 0.012,-0.104 0.012,-0.103 0.014,-0.103 0.015,-0.103 0.016,-0.103 0.018,-0.102 0.019,-0.102 0.02,-0.101 0.021,-0.101 0.023,-0.101 0.024,-0.1 0.025,-0.099 0.026,-0.1 0.027,-0.098 0.029,-0.098 0.03,-0.098 0.031,-0.097 0.032,-0.097 0.033,-0.096 0.034,-0.095 0.036,-0.096 0.041,-0.106 0.072,-0.175 0.08,-0.185 0.086,-0.182 0.089,-0.18 0.093,-0.177 0.098,-0.175 0.102,-0.172 0.105,-0.169 0.11,-0.166 0.113,-0.163 0.117,-0.16 0.12,-0.158 0.125,-0.154 0.127,-0.151 0.132,-0.148 0.134,-0.145 0.138,-0.141 z m 5.704,5.984 h -0.001 v 31.719 l 0.001,0.012 10e-4,0.001 0.011,0.001 h 31.708 l 0.011,-0.001 h 0.001 l 10e-4,-0.001 v -0.012 -31.707 -0.012 h -10e-4 v -0.001 h -0.001 -0.011 -31.707 -0.012 z"
   style="fill:#253b59"
   id="path839" />

        </g>

        <g
   transform="matrix(1,0,0,0.918239,1.77867,-1.21841)"
   id="g844">
            <path
   d="M 210,24.9 C 210,16.125 203.458,9 195.4,9 H 24.6 C 16.542,9 10,16.125 10,24.9 v 127.2 c 0,8.775 6.542,15.9 14.6,15.9 h 170.8 c 8.058,0 14.6,-7.125 14.6,-15.9 z"
   style="fill:url(#_Linear1);stroke:#243a59;stroke-width:10.42000008px"
   id="path842" />

        </g>

        <g
   transform="matrix(1,0.00454993,0,0.974268,-1.5,-4.63901)"
   id="g848">
            <path
   d="m 26,17.261 v 139.078 c -4.41,-0.94 -7.721,-4.861 -7.721,-9.55 V 26.811 c 0,-4.688 3.311,-8.61 7.721,-9.55 z"
   style="fill:#ffffff;fill-opacity:0.9"
   id="path846" />

        </g>

        <g
   id="Oval"
   transform="matrix(1.11111,0,0,1.12246,-11.3022,-10.4827)">
            <ellipse
   cx="76.321999"
   cy="78.870003"
   rx="9"
   ry="8.9090004"
   style="fill:#243a59"
   id="ellipse850" />

        </g>

        <g
   id="Oval1"
   transform="matrix(1.11111,0,0,1.12246,-11.5315,-10.4827)">
            <ellipse
   cx="145.23399"
   cy="78.870003"
   rx="9"
   ry="8.9090004"
   style="fill:#243a59"
   id="ellipse853" />

        </g>

        <g
   id="Path-2"
   transform="matrix(1.12101,0,0,1.15181,-11.5146,-11.5364)">
            <path
   d="m 134.746,98.997 0.285,0.03 0.282,0.048 0.278,0.066 0.274,0.084 0.267,0.101 0.26,0.117 0.251,0.134 0.242,0.149 0.232,0.165 0.219,0.179 0.208,0.193 0.193,0.205 0.18,0.217 0.165,0.229 0.149,0.238 0.132,0.247 0.116,0.255 0.098,0.262 0.081,0.268 0.062,0.272 0.044,0.276 0.026,0.277 0.006,0.279 -0.012,0.279 -0.031,0.277 -0.049,0.275 -0.068,0.271 -0.086,0.266 -0.103,0.26 -0.121,0.253 -0.137,0.245 -0.154,0.235 -0.169,0.225 -0.184,0.214 -0.198,0.202 -0.211,0.189 -0.223,0.174 -0.322,0.236 -0.334,0.241 -0.333,0.237 -0.333,0.234 -0.333,0.23 -0.332,0.226 -0.332,0.223 -0.332,0.219 -0.332,0.216 -0.331,0.213 -0.331,0.209 -0.33,0.205 -0.33,0.202 -0.33,0.199 -0.329,0.195 -0.329,0.192 -0.329,0.189 -0.328,0.185 -0.328,0.182 -0.328,0.178 -0.327,0.176 -0.327,0.172 -0.326,0.168 -0.326,0.166 -0.325,0.162 -0.325,0.159 -0.325,0.156 -0.324,0.152 -0.323,0.15 -0.323,0.146 -0.323,0.143 -0.322,0.14 -0.322,0.137 -0.321,0.134 -0.32,0.131 -0.32,0.127 -0.32,0.125 -0.319,0.122 -0.318,0.118 -0.318,0.116 -0.317,0.113 -0.317,0.109 -0.316,0.107 -0.315,0.104 -0.314,0.101 -0.315,0.098 -0.313,0.096 -0.313,0.092 -0.312,0.09 -0.311,0.087 -0.311,0.084 -0.31,0.081 -0.309,0.079 -0.308,0.075 -0.308,0.074 -0.307,0.07 -0.306,0.068 -0.306,0.065 -0.304,0.062 -0.304,0.06 -0.303,0.058 -0.302,0.054 -0.302,0.052 -0.3,0.05 -0.3,0.047 -0.298,0.045 -0.298,0.042 -0.297,0.04 -0.296,0.037 -0.295,0.035 -0.294,0.033 -0.294,0.03 -0.292,0.028 -0.291,0.026 -0.29,0.023 -0.29,0.021 -0.288,0.019 -0.287,0.016 -0.286,0.015 -0.286,0.012 -0.284,0.01 -0.283,0.008 -0.282,0.006 -0.281,0.004 -0.28,0.001 h -0.278 l -0.278,-0.002 -0.276,-0.005 -0.276,-0.006 -0.274,-0.008 -0.273,-0.01 -0.272,-0.012 -0.271,-0.014 -0.269,-0.016 -0.269,-0.018 -0.267,-0.019 -0.266,-0.021 -0.265,-0.023 -0.263,-0.025 -0.262,-0.026 -0.261,-0.028 -0.26,-0.029 -0.259,-0.032 -0.257,-0.033 -0.256,-0.034 -0.255,-0.036 -0.253,-0.037 -0.253,-0.039 -0.25,-0.041 -0.25,-0.042 -0.248,-0.043 -0.247,-0.045 -0.246,-0.046 -0.244,-0.047 -0.243,-0.049 -0.241,-0.05 -0.24,-0.052 -0.239,-0.052 -0.238,-0.054 -0.236,-0.055 -0.234,-0.056 -0.234,-0.058 -0.232,-0.058 -0.23,-0.06 -0.229,-0.061 -0.228,-0.062 -0.226,-0.062 -0.225,-0.064 -0.223,-0.065 -0.222,-0.066 -0.221,-0.067 -0.219,-0.067 -0.218,-0.069 -0.216,-0.069 -0.215,-0.07 -0.213,-0.071 -0.212,-0.072 -0.21,-0.073 -0.209,-0.073 -0.207,-0.074 -0.206,-0.075 -0.204,-0.076 -0.203,-0.076 -0.202,-0.076 -0.2,-0.078 -0.198,-0.078 -0.197,-0.078 -0.195,-0.079 -0.194,-0.08 -0.193,-0.08 -0.19,-0.08 -0.19,-0.081 -0.187,-0.082 -0.187,-0.082 -0.184,-0.082 -0.183,-0.082 -0.182,-0.083 -0.18,-0.083 -0.178,-0.084 -0.177,-0.083 -0.175,-0.084 -0.174,-0.084 -0.172,-0.085 -0.171,-0.084 -0.169,-0.085 -0.167,-0.085 -0.166,-0.084 -0.164,-0.085 -0.162,-0.085 -0.161,-0.085 -0.16,-0.085 -0.158,-0.086 -0.156,-0.085 -0.158,-0.087 -0.3,-0.167 -0.298,-0.169 -0.291,-0.169 -0.285,-0.168 -0.278,-0.166 -0.271,-0.166 -0.264,-0.164 -0.258,-0.163 -0.251,-0.161 -0.245,-0.159 -0.237,-0.157 -0.231,-0.155 -0.224,-0.152 -0.217,-0.15 -0.21,-0.147 -0.203,-0.144 -0.196,-0.142 -0.189,-0.138 -0.182,-0.134 -0.175,-0.131 -0.167,-0.127 -0.161,-0.124 -0.153,-0.119 -0.146,-0.115 -0.139,-0.11 -0.132,-0.106 -0.124,-0.101 -0.117,-0.096 -0.114,-0.095 -0.192,-0.162 -0.166,-0.144 -0.136,-0.119 -0.109,-0.098 -0.078,-0.072 -0.202,-0.198 -0.188,-0.21 -0.174,-0.222 -0.159,-0.232 -0.142,-0.242 -0.126,-0.251 -0.109,-0.258 -0.091,-0.264 -0.073,-0.27 -0.055,-0.273 -0.037,-0.277 -0.017,-0.278 0.001,-0.279 0.019,-0.279 0.039,-0.276 0.056,-0.273 0.075,-0.269 0.094,-0.264 0.11,-0.258 0.128,-0.249 0.144,-0.241 0.16,-0.232 0.175,-0.22 0.19,-0.21 0.203,-0.196 0.216,-0.183 0.228,-0.169 0.239,-0.155 0.248,-0.138 0.258,-0.123 0.265,-0.106 0.271,-0.088 0.278,-0.072 0.281,-0.053 0.284,-0.036 0.286,-0.017 0.287,0.001 0.285,0.019 0.284,0.037 0.281,0.056 0.277,0.073 0.271,0.09 0.264,0.108 0.257,0.124 0.248,0.14 0.237,0.156 0.227,0.171 0.215,0.184 0.042,0.039 0.042,0.037 0.072,0.064 0.101,0.087 0.132,0.112 0.07,0.058 0.081,0.066 0.087,0.071 0.094,0.076 0.101,0.08 0.107,0.084 0.113,0.088 0.12,0.092 0.126,0.096 0.132,0.099 0.139,0.102 0.145,0.106 0.151,0.109 0.157,0.111 0.163,0.115 0.169,0.116 0.175,0.12 0.181,0.121 0.186,0.123 0.192,0.125 0.198,0.127 0.204,0.129 0.209,0.13 0.215,0.131 0.22,0.132 0.226,0.133 0.231,0.134 0.236,0.134 0.246,0.137 0.118,0.065 0.124,0.068 0.126,0.067 0.126,0.068 0.128,0.067 0.129,0.068 0.131,0.067 0.131,0.068 0.133,0.067 0.134,0.067 0.135,0.067 0.137,0.067 0.138,0.067 0.139,0.066 0.14,0.067 0.141,0.066 0.143,0.066 0.143,0.065 0.145,0.065 0.146,0.065 0.148,0.065 0.148,0.064 0.3,0.128 0.152,0.063 0.153,0.063 0.154,0.062 0.155,0.062 0.157,0.062 0.157,0.06 0.158,0.061 0.16,0.06 0.16,0.059 0.162,0.059 0.163,0.058 0.164,0.057 0.165,0.057 0.166,0.057 0.167,0.055 0.168,0.055 0.169,0.055 0.17,0.053 0.171,0.053 0.172,0.052 0.173,0.051 0.174,0.051 0.176,0.05 0.176,0.048 0.177,0.049 0.178,0.047 0.179,0.046 0.18,0.046 0.181,0.044 0.182,0.044 0.183,0.042 0.184,0.042 0.185,0.041 0.186,0.04 0.186,0.038 0.188,0.038 0.189,0.037 0.189,0.035 0.191,0.035 0.191,0.033 0.192,0.032 0.193,0.032 0.195,0.03 0.194,0.028 0.196,0.028 0.197,0.027 0.198,0.025 0.198,0.024 0.2,0.023 0.2,0.021 0.202,0.02 0.202,0.019 0.203,0.018 0.204,0.016 0.204,0.015 0.206,0.013 0.206,0.012 0.208,0.011 0.208,0.009 0.209,0.008 0.21,0.006 0.211,0.005 0.212,0.003 0.212,0.002 h 0.214 l 0.214,-0.001 0.215,-0.003 0.216,-0.004 0.217,-0.006 0.218,-0.008 0.218,-0.01 0.22,-0.011 0.22,-0.012 0.221,-0.015 0.222,-0.016 0.223,-0.018 0.224,-0.019 0.224,-0.022 0.226,-0.023 0.226,-0.025 0.227,-0.027 0.228,-0.029 0.229,-0.031 0.23,-0.032 0.231,-0.035 0.231,-0.036 0.233,-0.039 0.233,-0.04 0.234,-0.042 0.235,-0.045 0.236,-0.046 0.237,-0.049 0.237,-0.051 0.239,-0.052 0.239,-0.055 0.241,-0.057 0.241,-0.06 0.242,-0.061 0.243,-0.064 0.243,-0.066 0.245,-0.068 0.246,-0.071 0.246,-0.073 0.248,-0.075 0.248,-0.077 0.249,-0.08 0.25,-0.083 0.251,-0.084 0.251,-0.088 0.253,-0.09 0.254,-0.092 0.254,-0.095 0.255,-0.097 0.257,-0.1 0.257,-0.103 0.258,-0.105 0.259,-0.108 0.259,-0.11 0.261,-0.114 0.261,-0.116 0.263,-0.118 0.263,-0.122 0.264,-0.124 0.265,-0.128 0.266,-0.13 0.267,-0.133 0.268,-0.136 0.268,-0.138 0.269,-0.142 0.271,-0.145 0.271,-0.148 0.272,-0.151 0.273,-0.153 0.273,-0.157 0.275,-0.16 0.275,-0.164 0.276,-0.166 0.277,-0.17 0.278,-0.173 0.279,-0.176 0.279,-0.179 0.281,-0.183 0.281,-0.186 0.282,-0.189 0.283,-0.192 0.283,-0.197 0.285,-0.199 0.285,-0.203 0.286,-0.206 0.298,-0.219 0.235,-0.16 0.244,-0.145 0.254,-0.129 0.263,-0.113 0.269,-0.096 0.275,-0.078 0.279,-0.061 0.284,-0.042 0.285,-0.025 0.287,-0.007 z"
   style="fill:#253b59"
   id="path856" />

        </g>

    </g>
    </g>
    <g
       transform="matrix(0.26458333,0,0,0.26458333,51.108072,68.822393)"
       id="g823">
	<polygon
   style="fill:#dd0031"
   class="st0"
   points="125,230 203.9,186.3 218.1,63.2 125,30 31.9,63.2 46.1,186.3 "
   id="polygon817" />

	<polygon
   style="fill:#c3002f"
   class="st1"
   points="125,230 203.9,186.3 218.1,63.2 125,30 125,52.2 125,52.1 125,153.4 "
   id="polygon819" />

	<path
   style="fill:#ffffff"
   class="st2"
   d="M 125,52.1 66.8,182.6 v 0 h 21.7 v 0 l 11.7,-29.2 h 49.4 l 11.7,29.2 v 0 H 183 v 0 z m 17,83.3 h -34 l 17,-40.9 z"
   id="path821" />

</g>
  </g>
  <style
     type="text/css"
     id="style815">
	.st0{fill:#DD0031;}
	.st1{fill:#C3002F;}
	.st2{fill:#FFFFFF;}
</style>
</svg>
